<svg xmlns="http://www.w3.org/2000/svg" width="74.6" height="81.247" viewBox="0 0 74.6 81.247">
    <path data-name="路径 90" d="M15.981 38.2h61.727a2.57 2.57 0 0 1 2.581 2.581V56.41a2.57 2.57 0 0 1-2.581 2.581H15.981A2.57 2.57 0 0 1 13.4 56.41V40.781a2.617 2.617 0 0 1 2.581-2.581z" transform="translate(-9.509 -36.101)" style="fill:none;stroke:#cbcce0;stroke-linecap:round;stroke-width:4.198px"/>
    <path data-name="矩形 71" transform="translate(7.333 22.962)" style="fill:none;stroke:#cbcce0;stroke-linecap:round;stroke-width:4.198px" d="M0 0h60.007v50.472H0z"/>
    <path data-name="路径 91" d="M17 144.473a1.721 1.721 0 0 0 3.441 0zm0-4.373v4.3h3.513v-4.3z" transform="translate(-10.528 -64.946)" style="fill:#cbcce0"/>
    <path data-name="路径 92" d="M99.5 144.473a1.721 1.721 0 0 0 3.441 0zm0-4.373v4.3h3.513v-4.3z" transform="translate(-33.881 -64.946)" style="fill:#cbcce0"/>
    <path data-name="路径 93" d="M10.9 137.6h70.4" transform="translate(-8.801 -64.239)" style="fill:none;stroke:#cbcce0;stroke-linecap:round;stroke-width:4.198px"/>
    <path data-name="直线 35" transform="translate(41.243 13.426)" style="fill:none;stroke:#cbcce0;stroke-linecap:round;stroke-width:4.198px" d="M0 0h4.373"/>
    <path data-name="直线 36" transform="translate(52.499 13.426)" style="fill:none;stroke:#cbcce0;stroke-linecap:round;stroke-width:4.198px" d="M0 0h4.373"/>
    <path data-name="直线 37" transform="translate(18.517 35.795)" style="fill:none;stroke:#cbcce0;stroke-linecap:round;stroke-width:4.198px" d="M3.513 0 0 2.509"/>
    <path data-name="路径 94" d="M31.5 94h7.814v6.6a3.871 3.871 0 0 1-7.743 0V94z" transform="translate(-14.632 -51.897)" style="fill:#cbcce0"/>
    <path data-name="直线 38" transform="translate(34.934 35.795)" style="fill:none;stroke:#cbcce0;stroke-linecap:round;stroke-width:4.198px" d="M3.656 0 0 2.509"/>
    <path data-name="路径 95" d="M54.6 94h7.814v6.6a3.871 3.871 0 0 1-7.743 0L54.6 94z" transform="translate(-21.171 -51.897)" style="fill:#cbcce0"/>
    <path data-name="直线 39" transform="translate(51.567 35.795)" style="fill:none;stroke:#cbcce0;stroke-linecap:round;stroke-width:4.198px" d="M3.513 0 0 2.509"/>
    <path data-name="路径 96" d="M77.6 94h7.814v6.6a3.811 3.811 0 0 1-3.871 3.871 3.855 3.855 0 0 1-3.871-3.871L77.6 94z" transform="translate(-27.682 -51.897)" style="fill:#cbcce0"/>
</svg>
