<svg xmlns="http://www.w3.org/2000/svg" width="110.977" height="110.954" viewBox="0 0 110.977 110.954">
    <path data-name="路径 296" d="M-139.127-.37a3.588 3.588 0 0 1 2.034 2.034c.038.6.053 1.172.044 1.769v.513c0 .539-.008 1.078-.014 1.616q0 .549-.006 1.1-.007 1.344-.022 2.687l.446.032a10.692 10.692 0 0 1 7.457 3.875c.233.387.233.387.233 1.291l.408-.006q2.123-.03 4.246-.044.79-.007 1.579-.019c5.658-.083 5.658-.083 8.231.972l.477.19a14.6 14.6 0 0 1 7.433 7.72v.678l.423.01a6.184 6.184 0 0 1 4.284 1.741 4.907 4.907 0 0 1 1.461 3.791v.515c0 .561.005 1.122.006 1.683v3.628q0 1.572.014 3.143.008 1.21.006 2.421 0 .579.006 1.159v1.623l.008.48a4.251 4.251 0 0 1-1.507 3.145 5.7 5.7 0 0 1-4.713 1.748l-.06.586c-.657 3.047-3.348 5.448-5.816 7.1a12.956 12.956 0 0 1-7.415 1.852h-.905q-1.184 0-2.369-.011-1.211-.007-2.423-.009-2.372-.007-4.743-.022v7.91l2.822-.032 2.249-.015q1.181-.007 2.362-.021c.907-.012 1.813-.016 2.72-.02l.841-.014c3.62 0 6.3 1.428 8.951 3.832a10.805 10.805 0 0 1 3.15 7.034l.01.659c-.052.556-.052.556-.5 1.008a5.975 5.975 0 0 1-1.063.058h-27.131q-4.691 0-9.381.006-4.812.007-9.624.005h-14.901l-.755.005h-1.279a1.484 1.484 0 0 1-1.176-.763c-.342-2.683 1.091-5.248 2.67-7.317a12.877 12.877 0 0 1 7.049-4.435c.442-.02.884-.027 1.327-.026h2.572q1.173 0 2.345.006h2.4q2.348 0 4.7.011v-7.91l-2.863.04q-1.142.011-2.284.019-1.2.009-2.4.027c-.921.015-1.841.02-2.762.025l-.853.018a13.53 13.53 0 0 1-9.318-4.086c-1.306-1.359-3.252-3.516-3.252-5.534l-.763.071a5.542 5.542 0 0 1-3.793-1.654 4.708 4.708 0 0 1-1.368-3.716l-.007-.518q-.01-.849-.016-1.7v-.587q-.011-1.54-.017-3.08-.006-1.271-.023-2.542-.02-1.538-.023-3.075 0-.584-.013-1.168c-.059-3.67-.059-3.67 1.126-5.169a6.3 6.3 0 0 1 4.149-1.958l.525.01.324-.654c2.065-4.079 4.72-6.919 9.168-8.386a14.11 14.11 0 0 1 4.457-.5h.752q1.181 0 2.362.014l1.608.006q1.964.007 3.929.022l.209-.648a5.956 5.956 0 0 1 3.393-3.391 9.654 9.654 0 0 1 4.519-1.14l-.011-.663q-.018-1.224-.026-2.449-.005-.529-.014-1.057c-.008-.508-.012-1.017-.015-1.525 0-.156-.007-.312-.011-.473a4.5 4.5 0 0 1 .755-2.647 3.492 3.492 0 0 1 3.395-.904z" transform="translate(211.341 31.907)" style="fill:#d7e0e4"/>
    <g data-name="组 112">
        <path data-name="路径 297" d="M-47.021-.106h8.206q2.209 0 4.417-.009 1.708-.006 3.417 0h1.628c5.4-.024 5.4-.024 7.819 1.02l.612.245c3.169 1.319 5.523 4.37 6.846 7.439.885 2.261.781 4.59.776 6.976V19.598q0 1.737.009 3.473.006 1.347 0 2.694v1.28a15.559 15.559 0 0 1-1.656 8.085 3.643 3.643 0 0 0-.537 1.709 21.121 21.121 0 0 0 2.01 3.541 1.234 1.234 0 0 1 .25 1.036c-.184.4-.184.4-.636.622a10.721 10.721 0 0 1-3.63-.438 6.712 6.712 0 0 0-4.647-.268 8.651 8.651 0 0 1-3.413.74h-2.044q-1.191.007-2.383.009h-.824q-2.161.007-4.323.01-2.225 0-4.449.019-1.717.009-3.434.009-.82 0-1.639.008c-5.45.039-5.45.039-7.86-1.007l-.612-.245c-3.17-1.318-5.523-4.37-6.846-7.439-.885-2.261-.781-4.59-.776-6.976V22.427q0-1.737-.009-3.473-.006-1.347 0-2.694v-1.28a16.963 16.963 0 0 1 1.02-6.856l.245-.617c1.325-3.157 4.367-5.533 7.439-6.841a14.563 14.563 0 0 1 5.024-.772z" transform="translate(60.751 .137)" style="fill:#f4c300"/>
        <path data-name="路径 298" d="M-14.356-.308a4.84 4.84 0 0 1 2.26 2.26 11.366 11.366 0 0 1 .117 1.771V9.61c-.005 1.058 0 2.116 0 3.173v3.616c0 .546 0 1.091-.006 1.637l.006.485A3.8 3.8 0 0 1-13 21.163a3.37 3.37 0 0 1-2.723.991A3.756 3.756 0 0 1-18 20.562a4.481 4.481 0 0 1-.537-2.527V12.148c.005-1.058 0-2.116 0-3.173V5.359c0-.546 0-1.091.006-1.637l-.006-.485A3.8 3.8 0 0 1-17.52.6a3.315 3.315 0 0 1 3.164-.908z" transform="translate(39.108 5.402)" style="fill:#fdfbfc"/>
        <path data-name="路径 299" d="M-15.9-.943a5.217 5.217 0 0 1 1.78 1.78 4.238 4.238 0 0 1-.678 3.39 3.788 3.788 0 0 1-2.557 1.2 3.535 3.535 0 0 1-2.6-1.441 4.327 4.327 0 0 1-.494-3.15A3.471 3.471 0 0 1-15.9-.943z" transform="translate(41.133 31.605)" style="fill:#fdfbf9"/>
    </g>
    <path data-name="路径 300" d="M-47.8-.019H-36.949q2.634.006 5.268 0h11.154A13.793 13.793 0 0 1-10.46 3.808C-7.665 6.9-7.026 10.146-7.2 14.171a10.429 10.429 0 0 1-1.181 3.752l-.305.623a12.055 12.055 0 0 1-6.814 5.663 19.377 19.377 0 0 1-5.4.579h-6.188q-2.255 0-4.511-.006-2.6-.007-5.194 0h-11.002c-4.015-.023-7.475-.674-10.429-3.559-2.142-2.3-2.142-2.3-2.142-3.511h-.452c-1.213-3.976-1.466-7.511.452-11.3a12.5 12.5 0 0 1 1.582-2.034l.391-.46C-55.555.771-51.865-.038-47.8-.019z" transform="translate(105.677 56.103)" style="fill:#213b51"/>
    <path data-name="路径 301" d="m-79.122 0 .226.452h19.21l.227-.452q2.538.013 5.075.042 1.179.013 2.357.02c.907 0 1.813.015 2.72.027h.841a12.965 12.965 0 0 1 8.951 3.866 10.805 10.805 0 0 1 3.15 7.034l.01.659c-.052.556-.052.556-.5 1.008a5.975 5.975 0 0 1-1.063.058H-65.056q-4.691 0-9.381.006-4.812.007-9.624.005h-14.901l-.755.005H-101a1.484 1.484 0 0 1-1.176-.763c-.341-2.683 1.091-5.248 2.67-7.317a12.9 12.9 0 0 1 7.05-4.424c.442-.026.884-.04 1.327-.046l.809-.014.87-.011.893-.014 2.345-.035 2.4-.036q2.342-.037 4.69-.07z" transform="translate(140.487 98.209)" style="fill:#d8e1e5"/>
    <path data-name="路径 302" d="M-.91-.1q3.751 0 7.502-.008l3.483-.005H17.052c1.221 0 1.221 0 1.473.254.023.564.032 1.123.03 1.687v4.781c-.005 1.165-.005 1.165-.257 1.669H-.91a4.428 4.428 0 0 1-.256-2.112V1.532C-1.162.408-1.162.408-.91-.1z" transform="translate(62.501 90.395)" style="fill:#adbfc4"/>
    <path data-name="路径 303" d="M-41.566-.37a3.588 3.588 0 0 1 2.034 2.034c.038.6.053 1.172.044 1.769v.513c0 .539-.008 1.078-.014 1.616q0 .549-.006 1.1-.009 1.338-.024 2.686l.446.032a10.971 10.971 0 0 1 7.479 3.853c.211.409.211.409-.015 1.539h-21.922c-.226-.678-.226-.678.1-1.413a9.36 9.36 0 0 1 5.551-3.786 28.91 28.91 0 0 1 2.26-.226l-.011-.663q-.018-1.224-.026-2.449-.005-.529-.014-1.057c-.008-.508-.012-1.017-.015-1.525l-.011-.473a4.5 4.5 0 0 1 .754-2.646 3.491 3.491 0 0 1 3.39-.904z" transform="translate(113.779 31.907)" style="fill:#bccbd0"/>
    <path data-name="路径 304" d="m-19.932-.059.226.226-.1.861a53.547 53.547 0 0 0-.159 5.933V18.622a50.519 50.519 0 0 0 .257 6.4 5.647 5.647 0 0 1-4.068-1.13 4.457 4.457 0 0 1-1.844-3.232q-.007-.469-.011-.938l-.007-.518q-.01-.849-.016-1.7v-.587q-.011-1.54-.017-3.08-.006-1.271-.023-2.542-.02-1.538-.023-3.075 0-.584-.013-1.168c-.059-3.67-.059-3.67 1.126-5.169a6.118 6.118 0 0 1 4.672-1.942z" transform="translate(57.341 56.004)" style="fill:#bdccd1"/>
    <path data-name="路径 305" d="M0 0a6.42 6.42 0 0 1 4.706 1.751 4.907 4.907 0 0 1 1.462 3.79v.515c0 .561.005 1.122.006 1.683v3.628q0 1.572.014 3.143.008 1.21.006 2.421 0 .579.006 1.159v1.623l.008.48a4.251 4.251 0 0 1-1.507 3.145A5.7 5.7 0 0 1 0 25.087l.1-.387a30.35 30.35 0 0 0 .415-6.631V4.173A12.548 12.548 0 0 0 0 .9z" transform="translate(104.758 55.946)" style="fill:#bdccd1"/>
    <path data-name="路径 306" d="M-23.559-2.677A4.853 4.853 0 0 1-21.659.2a5.5 5.5 0 0 1-1.556 3.971A5.068 5.068 0 0 1-26.837 5.2a4.664 4.664 0 0 1-2.621-1.454 5.4 5.4 0 0 1-.9-4.068A5.225 5.225 0 0 1-28.1-3.035a4.789 4.789 0 0 1 4.541.358z" transform="translate(80.879 67.568)" style="fill:#dcb205"/>
    <path data-name="路径 307" d="M-22.434-2.708A4.455 4.455 0 0 1-20.6-.576a5.7 5.7 0 0 1-1.158 4.365 4.027 4.027 0 0 1-3.079 1.4A4.067 4.067 0 0 1-27.9 3.846C-28.995 2.6-29 1.526-28.982-.071a3.611 3.611 0 0 1 1.518-2.581c1.764-1.202 3.206-1.036 5.03-.056z" transform="translate(112.432 67.582)" style="fill:#dcb205"/>
    <path data-name="路径 308" d="M-14.208-.361a3.6 3.6 0 0 1 2.034 2.034c.041.579.058 1.133.052 1.712v.5q0 .517-.005 1.034V7.995c-.021 1.105-.021 1.105-.273 1.362-.416.023-.833.03-1.25.03H-17.51c-.541-.029-.541-.029-.767-.255-.055-1.01-.052-2.021-.054-3.032 0-.507-.009-1.014-.016-1.521v-.972l-.006-.892A3.725 3.725 0 0 1-17 .006a3.962 3.962 0 0 1 2.792-.367z" transform="translate(86.421 31.898)" style="fill:#adbfc4"/>
    <path data-name="路径 309" d="M-5.708 0a3.848 3.848 0 0 1 2.175 1.271 4.4 4.4 0 0 0 3.39.229A16.557 16.557 0 0 0 1.232.438a2.355 2.355 0 0 1 2.016-.3 1.229 1.229 0 0 1 .678.678 2.138 2.138 0 0 1-.241 1.764 6.179 6.179 0 0 1-3.827 2.3A7.922 7.922 0 0 1-6.8 2.826a2.35 2.35 0 0 1-.572-1.555A1.891 1.891 0 0 1-5.708 0z" transform="translate(72.808 70.495)" style="fill:#dcb206"/>
    <path data-name="路径 310" d="M0 0h.452a8.308 8.308 0 0 1 .678.876A10.555 10.555 0 0 0 2.26 2.26l-.226.678Q1.523 2.4 1.017 1.85l-.572-.611A1.345 1.345 0 0 1 0 0z" transform="translate(45.997 74.93)" style="fill:#274257"/>
    <path data-name="路径 311" d="M0 0a1.718 1.718 0 0 1 1.413.805l.4.551H1.13L.9.678A4.047 4.047 0 0 0 0 .226z" transform="translate(93.91 59.336)" style="fill:#2e475c"/>
</svg>
