<svg xmlns="http://www.w3.org/2000/svg" width="74.199" height="100" viewBox="0 0 74.199 100">
    <g data-name="组 95">
        <g data-name="10002 (1)">
            <path data-name="路径 201" d="M77.438 52.323a35.519 35.519 0 0 1-9.558 24.905 36.085 36.085 0 0 1-24.208 11.3 35.42 35.42 0 0 1-25.185-8.651A35.928 35.928 0 0 1 6.348 56.09a36.523 36.523 0 0 1 7.814-25.6 35.578 35.578 0 0 1 23.3-12.906 36.045 36.045 0 0 1 21.7 4.325" style="fill:none;stroke:#cbcce0;stroke-linecap:round;stroke-width:2.986px" transform="translate(-4.737 -15.843)"/>
            <path data-name="路径 202" d="M34.533 32.37c2.511.767 7.674 5.093 8.581 16.115" style="fill:none;stroke:#cbcce0;stroke-linecap:round;stroke-width:2.986px" transform="translate(-4.737 -15.843)"/>
            <path data-name="路径 203" d="M51.276 76.531c-2.511-.767-7.674-5.093-8.581-16.115" style="fill:none;stroke:#cbcce0;stroke-linecap:round;stroke-width:2.986px" transform="translate(-4.737 -15.843)"/>
            <path data-name="路径 204" d="M19.534 57.834c1.256-2.232 6.558-6.418 17.65-4.953" style="fill:none;stroke:#cbcce0;stroke-linecap:round;stroke-width:2.986px" transform="translate(-4.737 -15.843)"/>
            <path data-name="路径 205" d="M66.275 51.137c-1.256 2.232-6.558 6.418-17.65 4.953" style="fill:none;stroke:#cbcce0;stroke-linecap:round;stroke-width:2.986px" transform="translate(-4.737 -15.843)"/>
            <path data-name="直线 62" transform="translate(41.935 74.222)" style="fill:none;stroke:#cbcce0;stroke-linecap:round;stroke-width:2.986px" d="M0 0v19.883"/>
            <path data-name="路径 206" d="M30.7 113.924h0a45.59 45.59 0 0 1 31.882 0h0" style="fill:none;stroke:#cbcce0;stroke-linecap:round;stroke-width:2.986px" transform="translate(-4.737 -15.843)"/>
        </g>
    </g>
</svg>
