<svg xmlns="http://www.w3.org/2000/svg" width="75.168" height="58.447" viewBox="0 0 75.168 58.447">
    <g data-name="组 93">
        <g data-name="10001 (1)">
            <path data-name="路径 198" d="M7.862 61.351h67.552a1.971 1.971 0 0 1 2.006 2.006v40.129a1.971 1.971 0 0 1-2.006 2.006H7.862a1.971 1.971 0 0 1-2.006-2.006V63.358a2.012 2.012 0 0 1 2.006-2.007z" transform="translate(-4.054 -59.549)" style="fill:none;stroke:#cbcce0;stroke-width:3.604px"/>
            <path data-name="路径 199" d="M6.757 108.2h42.136" transform="translate(-4.286 -71.617)" style="stroke-linecap:round;fill:none;stroke:#cbcce0;stroke-width:3.604px"/>
            <path data-name="路径 200" d="m56.694 128.736 3.879 3.612a.655.655 0 0 1-.468 1.137H42.114a.669.669 0 0 1-.468-1.137l4.147-3.879" transform="translate(-13.224 -76.839)" style="stroke-linecap:round;fill:none;stroke:#cbcce0;stroke-width:3.604px"/>
        </g>
    </g>
</svg>
