<svg xmlns="http://www.w3.org/2000/svg" width="75.102" height="111.462" viewBox="0 0 75.102 111.462">
    <path data-name="路径 81" d="M24.349 19.1h56.657a2.11 2.11 0 0 1 2.149 2.149v99.061a2.11 2.11 0 0 1-2.149 2.149H24.349a2.11 2.11 0 0 1-2.149-2.149V21.32a2.218 2.218 0 0 1 2.149-2.22z" transform="translate(-9.781 -17.372)" style="stroke-width:3.456px;fill:none;stroke:#cbcce0"/>
    <path data-name="直线 31" transform="translate(12.491 37.184)" style="stroke-width:3.456px;fill:none;stroke:#cbcce0" d="M0 0h61.6"/>
    <path data-name="直线 32" transform="translate(62.057 20.853)" style="stroke-linecap:round;stroke-width:3.456px;fill:none;stroke:#cbcce0" d="M0 0v4.942"/>
    <path data-name="直线 33" transform="translate(62.057 54.876)" style="stroke-linecap:round;stroke-width:3.456px;fill:none;stroke:#cbcce0" d="M0 0v4.942"/>
    <path data-name="路径 82" d="M7.4 141.2 34.977 120" transform="translate(-5.582 -46)" style="stroke-width:2.592px;stroke-linecap:round;fill:none;stroke:#cbcce0"/>
    <path data-name="路径 83" d="M35.2 107.713 48.379 97.9" transform="translate(-13.47 -39.729)" style="stroke-width:2.592px;stroke-linecap:round;fill:none;stroke:#cbcce0"/>
    <path data-name="路径 84" d="M29.1 168.187a1.361 1.361 0 0 0 2.722 0zm0-5.587v5.659h2.865V162.6z" transform="translate(-11.739 -58.086)" style="fill:#cbcce0"/>
    <path data-name="路径 85" d="M96.4 168.187a1.361 1.361 0 0 0 2.722 0zm0-5.587v5.659h2.865V162.6z" transform="translate(-30.833 -58.086)" style="fill:#cbcce0"/>
</svg>
