<svg xmlns="http://www.w3.org/2000/svg" width="75.153" height="53.323" viewBox="0 0 75.153 53.323">
    <path data-name="路径 86" d="M8.5 56.441a2.152 2.152 0 0 1 2.141-2.141h66.87a2.152 2.152 0 0 1 2.142 2.141v21.83a8.933 8.933 0 0 1-8.911 8.911H17.55a8.933 8.933 0 0 1-8.911-8.911v-21.83z" transform="translate(-6.5 -52.3)" style="fill:none;stroke:#cbcce0;stroke-linecap:round;stroke-width:4px"/>
    <path data-name="路径 87" d="M72.822 91.457h0A5.469 5.469 0 0 0 67.365 86H31.857a5.469 5.469 0 0 0-5.457 5.457h0" transform="translate(-12.035 -62.102)" style="fill:none;stroke:#cbcce0;stroke-linecap:round;stroke-width:4px"/>
    <path data-name="路径 88" d="M30.621 110.7c-.138 2.694-1.865 8.013-8.221 7.806" transform="translate(-10.798 -69.739)" style="fill:none;stroke:#cbcce0;stroke-linecap:round;stroke-width:4px"/>
    <path data-name="路径 89" d="M85.6 110.7c.138 2.694 1.865 8.013 8.221 7.806" transform="translate(-30.339 -69.739)" style="fill:none;stroke:#cbcce0;stroke-linecap:round;stroke-width:4px"/>
    <path data-name="直线 34" transform="translate(38.889 41.652)" style="fill:none;stroke:#cbcce0;stroke-linecap:round;stroke-width:4px" d="M0 0v9.671"/>
</svg>
