<svg xmlns="http://www.w3.org/2000/svg" width="127.894" height="39.209" viewBox="0 0 127.894 39.209">
    <path data-name="路径 118" d="M5.771 88.9a1.071 1.071 0 1 0 0 2.142zm6.656 0H5.771v2.219h6.656V88.9z" transform="translate(-3.017 -73.695)" style="fill:#cbcce0"/>
    <path data-name="路径 119" d="M3.571 104.1a1.071 1.071 0 0 0 0 2.142zm8.339 0H3.571v2.219h8.262V104.1z" transform="translate(-2.5 -77.266)" style="fill:#cbcce0"/>
    <path data-name="路径 120" d="M54.1 92.309h15.836a10.366 10.366 0 0 0 10.4-10.4h0a10.366 10.366 0 0 1 10.4-10.4h49.88" transform="translate(-14.625 -69.606)" style="fill:none;stroke:#cbcce0;stroke-linecap:round;stroke-width:3.788px"/>
    <path data-name="路径 121" d="M16.2 77.277v29.377a1.616 1.616 0 0 0 1.607 1.607h11.857a13.469 13.469 0 0 0 13.541-13.542v-3.9A13.582 13.582 0 0 0 29.664 77.2h-5.2" transform="translate(-5.719 -70.945)" style="fill:none;stroke:#cbcce0;stroke-linecap:round;stroke-width:3.788px"/>
</svg>
