<svg xmlns="http://www.w3.org/2000/svg" width="77.515" height="60.444" viewBox="0 0 77.515 60.444">
    <g data-name="组 94">
        <g data-name="10001">
            <path data-name="路径 165" d="M6.055 65.577h69.329a2.038 2.038 0 0 1 2.027 2.023v41.2a2.038 2.038 0 0 1-2.028 2.028H6.055a2.038 2.038 0 0 1-2.028-2.028V67.6a2.082 2.082 0 0 1 2.028-2.023z" transform="translate(-1.963 -63.512)" style="stroke-width:4.131px;stroke:#f9faff;fill:#69c8be"/>
            <path data-name="路径 166" d="M5.06 121.962h43.233" transform="translate(-2.341 -84.186)" style="stroke:#fff;fill:none;stroke-linecap:round;stroke-width:4.131px"/>
            <path data-name="路径 167" d="m62.5 146.6 3.99 3.728a.68.68 0 0 1-.458 1.177H47.519a.672.672 0 0 1-.458-1.177l4.251-3.99" transform="translate(-17.657 -93.123)" style="fill:none;stroke-linecap:round;stroke-width:4.131px;stroke:#f9faff"/>
        </g>
    </g>
</svg>
