<svg xmlns="http://www.w3.org/2000/svg" width="128.523" height="41.895" viewBox="0 0 128.523 41.895">
    <g data-name="10006">
        <path data-name="路径 66" d="M33.516 55.6a1.25 1.25 0 0 0-1.116 1.116 1.155 1.155 0 0 0 1.116 1.116zm6.694 0h-6.694v2.231h6.694z" transform="translate(-30.756 -40.392)" style="fill:#fff"/>
        <path data-name="路径 67" d="M30.716 75.5a1.25 1.25 0 0 0-1.116 1.116 1.155 1.155 0 0 0 1.116 1.116zm8.338 0h-8.338v2.231h8.338z" transform="translate(-29.6 -48.621)" style="fill:#fff"/>
        <path data-name="路径 68" d="M97.3 53.745h15.971a10.463 10.463 0 0 0 10.452-10.393h0A10.463 10.463 0 0 1 134.116 32.9h50.2" transform="translate(-57.692 -31.005)" style="fill:none;stroke:#fff;stroke-linecap:round;stroke-width:3.79px"/>
        <path data-name="路径 69" d="M60.9 54.7v27.245h11.92a12.017 12.017 0 0 0 11.98-11.92V66.62A12.017 12.017 0 0 0 72.82 54.7z" transform="translate(-42.521 -40.05)" style="fill:#ffd943"/>
        <path data-name="路径 70" d="M47.6 40.5v29.551a1.679 1.679 0 0 0 1.644 1.642h11.979a13.622 13.622 0 0 0 13.623-13.6v-3.932A13.622 13.622 0 0 0 61.281 40.5h-5.343" transform="translate(-37.031 -34.142)" style="fill:none;stroke:#fff;stroke-linecap:round;stroke-width:3.79px"/>
    </g>
</svg>
