<?xml version="1.0" encoding="utf-8"?>
<!-- Generator: Adobe Illustrator 26.0.0, SVG Export Plug-In . SVG Version: 6.00 Build 0)  -->
<svg version="1.1" id="圖層_1" xmlns="http://www.w3.org/2000/svg" xmlns:xlink="http://www.w3.org/1999/xlink" x="0px" y="0px"
	 viewBox="0 0 50 50" style="enable-background:new 0 0 50 50;" xml:space="preserve">
<style type="text/css">
	.st0{fill:none;stroke:#11263C;stroke-width:2;stroke-linecap:round;stroke-linejoin:round;}
</style>
<g>
	<path class="st0" d="M16,19h2h16"/>
	<path class="st0" d="M21,19v-2c0-0.5,0.2-1,0.6-1.4C22,15.2,22.5,15,23,15h4c0.5,0,1,0.2,1.4,0.6C28.8,16,29,16.5,29,17v2 M32,19
		v14c0,0.5-0.2,1-0.6,1.4C31,34.8,30.5,35,30,35H20c-0.5,0-1-0.2-1.4-0.6C18.2,34,18,33.5,18,33V19H32z"/>
	<path class="st0" d="M27,24v6"/>
	<path class="st0" d="M23,24v6"/>
</g>
</svg>
