<svg xmlns="http://www.w3.org/2000/svg" width="74.498" height="91.688" viewBox="0 0 74.498 91.688">
    <path data-name="路径 77" d="m20 33.37 14.323 11.375a2.534 2.534 0 0 0 2.949.07L61.707 26.7" transform="translate(-10.834 -23.902)" style="stroke-linecap:round;fill:none;stroke:#cbcce0;stroke-width:4px"/>
    <path data-name="路径 78" d="M18.9 148.289a1.615 1.615 0 0 0 3.23 0zm0-6.389v6.389h3.23V141.9z" transform="translate(-10.506 -58.216)" style="fill:#cbcce0"/>
    <path data-name="路径 79" d="M96.5 148.289a1.615 1.615 0 0 0 3.23 0zm0-6.389v6.389h3.23V141.9z" transform="translate(-33.621 -58.216)" style="fill:#cbcce0"/>
    <path data-name="直线 30" transform="translate(55.858 27.302)" style="fill:none;stroke:#cbcce0;stroke-width:4px" d="M0 0v56.732"/>
    <path data-name="路径 80" d="M12.186 63.9h65.72a2.368 2.368 0 0 1 2.387 2.387v48.728a2.368 2.368 0 0 1-2.387 2.387h-65.72a2.368 2.368 0 0 1-2.386-2.387V66.287a2.285 2.285 0 0 1 2.386-2.387z" transform="translate(-7.794 -34.983)" style="fill:none;stroke:#cbcce0;stroke-width:4px"/>
</svg>
