<svg xmlns="http://www.w3.org/2000/svg" width="75.748" height="97.352" viewBox="0 0 75.748 97.352">
    <g data-name="10007">
        <path data-name="路径 59" d="M114 37.911A8.878 8.878 0 0 1 122.735 29h54.279a8.878 8.878 0 0 1 8.735 8.911v79.142a2.107 2.107 0 0 1-2.08 2.122H116.08a2.107 2.107 0 0 1-2.08-2.122z" transform="translate(-112 -27)" style="stroke:#fff;fill:none;stroke-width:4px"/>
        <path data-name="路径 60" d="M155.6 45h0c0 2.164-1.454 3.864-3.161 3.864h-24.978c-1.77 0-3.161-1.777-3.161-3.864h0" transform="translate(-100.933 -26.116)" style="stroke-linecap:round;stroke:#21a1a0;fill:none;stroke-width:4px"/>
        <path data-name="路径 61" d="M122.2 117.682a1.314 1.314 0 1 0 2.627 0zm0-4.482v4.482h2.627V113.2z" transform="translate(-113.863 -21.643)" style="fill:#fff"/>
        <path data-name="路径 62" d="M171.7 117.682a1.314 1.314 0 0 0 2.627 0zm0-4.482v4.482h2.627V113.2z" transform="translate(-106.684 -21.643)" style="fill:#fff"/>
        <path data-name="直线 26" transform="translate(10.5 57.943)" style="stroke:#ffd943;stroke-linecap:round;fill:none;stroke-width:4px" d="M0 0h54.825"/>
        <path data-name="直线 27" transform="translate(10.5 66.781)" style="stroke:#ffd943;stroke-linecap:round;fill:none;stroke-width:4px" d="M0 0h54.825"/>
        <path data-name="直线 28" transform="translate(10.5 75.516)" style="stroke:#ffd943;stroke-linecap:round;fill:none;stroke-width:4px" d="M0 0h54.825"/>
        <path data-name="路径 63" d="M140.1 39.9v1.932" transform="translate(-110.96 -29.477)" style="stroke-linecap:round;stroke:#fff;fill:none;stroke-width:4px"/>
        <path data-name="路径 64" d="M148.5 39.9v1.932" transform="translate(-110.626 -29.477)" style="stroke-linecap:round;stroke:#fff;fill:none;stroke-width:4px"/>
        <path data-name="路径 65" d="M157 39.9v1.932" transform="translate(-110.287 -29.477)" style="stroke-linecap:round;stroke:#fff;fill:none;stroke-width:4px"/>
    </g>
</svg>
