<svg xmlns="http://www.w3.org/2000/svg" width="74.799" height="100.624" viewBox="0 0 74.799 100.624">
    <g data-name="组 96">
        <g data-name="10002">
            <path data-name="路径 168" d="M74.466 49.324A35.715 35.715 0 0 1 40.57 85.64a35.741 35.741 0 1 1 15.61-66.9" transform="translate(-1.311 -12.543)" style="stroke:#fff;fill:none;stroke-linecap:round;stroke-width:3.272px"/>
            <path data-name="路径 169" d="M37.234 32.265c2.549.765 7.773 5.033 8.665 16.183" transform="translate(-7.023 -15.554)" style="stroke:#ffd943;fill:none;stroke-linecap:round;stroke-width:3.272px"/>
            <path data-name="路径 170" d="M55.533 82.242c-2.549-.765-7.773-5.033-8.665-16.183" transform="translate(-8.628 -21.186)" style="stroke:#ffd943;fill:none;stroke-linecap:round;stroke-width:3.272px"/>
            <path data-name="路径 171" d="M19.038 61.946c1.338-2.23 6.626-6.435 17.649-4.97" transform="translate(-3.99 -19.622)" style="stroke:#ffd943;fill:none;stroke-linecap:round;stroke-width:3.272px"/>
            <path data-name="路径 172" d="M71.78 54.819c-1.338 2.23-6.626 6.435-17.649 4.97" transform="translate(-9.839 -19.313)" style="stroke:#ffd943;fill:none;stroke-linecap:round;stroke-width:3.272px"/>
            <path data-name="直线 51" transform="translate(42.317 74.627)" style="stroke:#fff;fill:none;stroke-linecap:round;stroke-width:3.272px" d="M0 0v20.006"/>
            <path data-name="路径 173" d="M32.647 129.861h0a45.856 45.856 0 0 1 31.921 0h0" transform="translate(-6.258 -31.342)" style="stroke:#fff;fill:none;stroke-linecap:round;stroke-width:3.272px"/>
        </g>
    </g>
</svg>
