<svg xmlns="http://www.w3.org/2000/svg" width="75.698" height="55.562" viewBox="0 0 75.698 55.562">
    <g data-name="10003">
        <path data-name="路径 40" d="M95.1 51.845a2.212 2.212 0 0 1 2.164-2.245h67.371a2.211 2.211 0 0 1 2.164 2.245V74.67a9.194 9.194 0 0 1-9.016 9.355h-53.594a9.193 9.193 0 0 1-9.016-9.355V51.845z" transform="translate(-93.1 -47.6)" style="stroke-linecap:round;stroke-width:4px;stroke:#fff;fill:#69c8be"/>
        <path data-name="路径 41" d="M158.205 85.988h0a5.534 5.534 0 0 0-5.372-5.688h-35.061a5.534 5.534 0 0 0-5.372 5.688h0" transform="translate(-97.453 -55.325)" style="fill:none;stroke-linecap:round;stroke-width:4px;stroke:#fff"/>
        <path data-name="路径 42" d="M117.131 104c-.15 2.844-2.021 8.382-8.531 8.082" transform="translate(-96.497 -61.289)" style="stroke:#ffd943;fill:none;stroke-linecap:round;stroke-width:4px"/>
        <path data-name="路径 43" d="M169.6 104c.15 2.844 2.021 8.382 8.531 8.082" transform="translate(-114.536 -61.289)" style="stroke:#ffd943;fill:none;stroke-linecap:round;stroke-width:4px"/>
        <path data-name="直线 17" transform="translate(39.148 43.384)" style="stroke:#ffd943;fill:none;stroke-linecap:round;stroke-width:4px" d="M0 0v10.178"/>
    </g>
</svg>
